<?xml version="1.0" encoding="utf-8"?>
<!-- Generator: Adobe Illustrator 21.1.0, SVG Export Plug-In . SVG Version: 6.00 Build 0)  -->
<svg version="1.1" id="Layer_1" xmlns="http://www.w3.org/2000/svg" xmlns:xlink="http://www.w3.org/1999/xlink" x="0px" y="0px"
	 viewBox="0 0 65 78.8" style="enable-background:new 0 0 65 78.8;" xml:space="preserve">
<style type="text/css">
	.st0{fill:#2F3542;}
</style>
<path class="st0" d="M62.2,24.5c-0.6-0.6-1.4-1-2.3-1H45.4V14l11.7-5.4c1.6-0.7,2.2-2.6,1.5-4.1C57.9,3,56.1,2.3,54.5,3L41,9.2
	c-1.1,0.5-1.8,1.6-1.8,2.8v11.4h-6.3c-0.5-8.1-7.3-14.5-15.5-14.5c-8.6,0-15.6,7-15.6,15.6s7,15.6,15.6,15.6c1.7,0,3.4-0.3,5-0.8
	l2.3,35.3c0.1,1.6,1.5,2.9,3.1,2.9h29.1c1.6,0,3-1.3,3.1-2.9l3.1-47.7C63.1,25.9,62.8,25.1,62.2,24.5L62.2,24.5z M24.7,23.5
	c-0.9,0-1.7,0.4-2.3,1c-0.6,0.6-0.9,1.5-0.8,2.3l0.4,5.9c-1.4,0.8-2.9,1.2-4.5,1.2c-5.2,0-9.3-4.2-9.3-9.3c0-5.2,4.2-9.3,9.3-9.3
	c4.8,0,8.8,3.6,9.3,8.3H24.7z M28.4,35.9L28.3,34c0,0,0,0,0,0L28,29.7h11.2v6.2H28.4z M56.2,35.9H45.4v-6.2h11.2L56.2,35.9z
	 M56.2,35.9"/>
</svg>
