<?xml version="1.0" encoding="utf-8"?>
<!-- Generator: Adobe Illustrator 21.1.0, SVG Export Plug-In . SVG Version: 6.00 Build 0)  -->
<svg version="1.1" id="Layer_1" xmlns="http://www.w3.org/2000/svg" xmlns:xlink="http://www.w3.org/1999/xlink" x="0px" y="0px"
	 viewBox="0 0 18.8 26.8" style="enable-background:new 0 0 18.8 26.8;" xml:space="preserve">
<style type="text/css">
	.st0{fill:#FFFFFF;}
	.st1{opacity:0.8;}
</style>
<path class="st0" d="M5.7,7.3C6.2,6,6.8,4.6,9.2,4.6c2,0,3.3,1.1,3.3,2.9c0,1.1-0.7,1.9-1.5,2.7l4,2.2c1.4-1.2,2.7-2.7,2.7-5
	c0-4.8-4.3-6.8-8.6-6.8C5.8,0.8,2.7,2.6,1.6,5L5.7,7.3z"/>
<g class="st1">
	<path class="st0" d="M3.3,9.1c1.4,0,1.9-0.9,2.4-1.8L1.6,5C1.3,5.6,1.1,6.3,1.1,7C1.1,8.4,2.2,9.1,3.3,9.1z"/>
	<path class="st0" d="M11,10.3c-1.8,1.6-4.4,2.9-4.4,5.6c0,1.1,0.7,2.3,2.2,2.3c2.2,0,2-1.7,2.8-2.9c0.5-0.8,2-1.6,3.4-2.7L11,10.3z
		"/>
	<circle class="st0" cx="8.9" cy="23.1" r="2.8"/>
</g>
</svg>
